<svg width="44" height="44" viewBox="0 0 44 44" fill="none" xmlns="http://www.w3.org/2000/svg">
<g clip-path="url(#clip0_1_232)">
<path d="M22 27.5C25.0376 27.5 27.5 25.0376 27.5 22C27.5 18.9624 25.0376 16.5 22 16.5C18.9624 16.5 16.5 18.9624 16.5 22C16.5 25.0376 18.9624 27.5 22 27.5Z" stroke="#10B981" stroke-width="1.83333" stroke-linecap="round" stroke-linejoin="round"/>
<path d="M22 36.6667C30.1002 36.6667 36.6667 30.1002 36.6667 22C36.6667 13.8999 30.1002 7.33337 22 7.33337C13.8999 7.33337 7.33337 13.8999 7.33337 22C7.33337 30.1002 13.8999 36.6667 22 36.6667Z" stroke="#10B981" stroke-width="1.83333" stroke-linecap="round" stroke-linejoin="round"/>
<path d="M22 3.66663V7.33329" stroke="#10B981" stroke-width="1.83333" stroke-linecap="round" stroke-linejoin="round"/>
<path d="M22 36.6666V40.3333" stroke="#10B981" stroke-width="1.83333" stroke-linecap="round" stroke-linejoin="round"/>
<path d="M36.6666 22H40.3333" stroke="#10B981" stroke-width="1.83333" stroke-linecap="round" stroke-linejoin="round"/>
<path d="M3.66663 22H7.33329" stroke="#10B981" stroke-width="1.83333" stroke-linecap="round" stroke-linejoin="round"/>
</g>
<defs>
<clipPath id="clip0_1_232">
<rect width="44" height="44" fill="white"/>
</clipPath>
</defs>
</svg>
