<svg width="40" height="40" viewBox="0 0 40 40" fill="none" xmlns="http://www.w3.org/2000/svg">
<g clip-path="url(#clip0_1_298)">
<path d="M20 23.3335C22.7614 23.3335 25 21.0949 25 18.3335C25 15.5721 22.7614 13.3335 20 13.3335C17.2386 13.3335 15 15.5721 15 18.3335C15 21.0949 17.2386 23.3335 20 23.3335Z" stroke="#10B981" stroke-width="1.83333" stroke-linecap="round" stroke-linejoin="round"/>
<path d="M29.4284 27.7617L22.3567 34.8333C21.7317 35.4577 20.8843 35.8085 20.0009 35.8085C19.1174 35.8085 18.2701 35.4577 17.645 34.8333L10.5717 27.7617C8.70706 25.8969 7.43725 23.5212 6.92284 20.9348C6.40843 18.3484 6.67251 15.6675 7.6817 13.2312C8.69089 10.7949 10.3999 8.71257 12.5925 7.24751C14.7851 5.78246 17.363 5.00049 20 5.00049C22.6371 5.00049 25.2149 5.78246 27.4076 7.24751C29.6002 8.71257 31.3092 10.7949 32.3184 13.2312C33.3275 15.6675 33.5916 18.3484 33.0772 20.9348C32.5628 23.5212 31.293 25.8969 29.4284 27.7617V27.7617Z" stroke="#10B981" stroke-width="1.83333" stroke-linecap="round" stroke-linejoin="round"/>
</g>
<defs>
<clipPath id="clip0_1_298">
<rect width="40" height="40" fill="white"/>
</clipPath>
</defs>
</svg>
