<svg width="1037" height="136" viewBox="0 0 1037 136" fill="none" xmlns="http://www.w3.org/2000/svg">
<g filter="url(#filter0_dd_1_72)">
<rect x="12" y="2" width="1013" height="112" rx="8" fill="white"/>
</g>
<g clip-path="url(#clip0_1_72)">
<path d="M82 64.6667C85.0376 64.6667 87.5 62.2043 87.5 59.1667C87.5 56.1291 85.0376 53.6667 82 53.6667C78.9624 53.6667 76.5 56.1291 76.5 59.1667C76.5 62.2043 78.9624 64.6667 82 64.6667Z" stroke="#374151" stroke-width="1.83333" stroke-linecap="round" stroke-linejoin="round"/>
<path d="M92.3712 69.5378L84.5923 77.3167C83.9048 78.0035 82.9727 78.3893 82.0009 78.3893C81.0291 78.3893 80.097 78.0035 79.4095 77.3167L71.6288 69.5378C69.5777 67.4866 68.1809 64.8733 67.6151 62.0283C67.0492 59.1832 67.3397 56.2343 68.4498 53.5544C69.5599 50.8744 71.4398 48.5838 73.8517 46.9723C76.2636 45.3607 79.0992 44.5005 82 44.5005C84.9007 44.5005 87.7364 45.3607 90.1483 46.9723C92.5602 48.5838 94.44 50.8744 95.5501 53.5544C96.6603 56.2343 96.9507 59.1832 96.3849 62.0283C95.819 64.8733 94.4222 67.4866 92.3712 69.5378V69.5378Z" stroke="#374151" stroke-width="1.83333" stroke-linecap="round" stroke-linejoin="round"/>
</g>
<path d="M121.585 68H129.256V66.5938H123.17V54.9091H121.585V68ZM135.494 68.2045C138.153 68.2045 139.943 66.1847 139.943 63.142C139.943 60.0739 138.153 58.054 135.494 58.054C132.835 58.054 131.045 60.0739 131.045 63.142C131.045 66.1847 132.835 68.2045 135.494 68.2045ZM135.494 66.8494C133.474 66.8494 132.554 65.1108 132.554 63.142C132.554 61.1733 133.474 59.4091 135.494 59.4091C137.514 59.4091 138.435 61.1733 138.435 63.142C138.435 65.1108 137.514 66.8494 135.494 66.8494ZM146.235 68.2045C148.408 68.2045 149.84 66.875 150.095 65.1364H148.587C148.306 66.2102 147.411 66.8494 146.235 66.8494C144.445 66.8494 143.294 65.3665 143.294 63.0909C143.294 60.8665 144.47 59.4091 146.235 59.4091C147.564 59.4091 148.357 60.2273 148.587 61.1222H150.095C149.84 59.2812 148.28 58.054 146.209 58.054C143.55 58.054 141.786 60.1506 141.786 63.142C141.786 66.0824 143.473 68.2045 146.235 68.2045ZM155.19 68.2301C156.903 68.2301 157.798 67.3097 158.105 66.6705H158.181V68H159.69V61.5312C159.69 58.4119 157.312 58.054 156.059 58.054C154.576 58.054 152.889 58.5653 152.122 60.3551L153.553 60.8665C153.886 60.1506 154.672 59.3835 156.11 59.3835C157.497 59.3835 158.181 60.1186 158.181 61.3778V61.429C158.181 62.1577 157.44 62.0938 155.65 62.3239C153.828 62.5604 151.84 62.9631 151.84 65.2131C151.84 67.1307 153.323 68.2301 155.19 68.2301ZM155.42 66.875C154.218 66.875 153.349 66.3381 153.349 65.2898C153.349 64.1392 154.397 63.7812 155.573 63.6278C156.213 63.5511 157.926 63.3722 158.181 63.0653V64.446C158.181 65.6733 157.21 66.875 155.42 66.875ZM166.713 58.1818H164.616V55.8295H163.108V58.1818H161.625V59.4602H163.108V65.5966C163.108 67.3097 164.489 68.1278 165.767 68.1278C166.33 68.1278 166.688 68.0256 166.892 67.9489L166.585 66.5938C166.457 66.6193 166.253 66.6705 165.92 66.6705C165.256 66.6705 164.616 66.4659 164.616 65.1875V59.4602H166.713V58.1818ZM168.982 68H170.491V58.1818H168.982V68ZM169.749 56.5455C170.337 56.5455 170.823 56.0852 170.823 55.5227C170.823 54.9602 170.337 54.5 169.749 54.5C169.161 54.5 168.675 54.9602 168.675 55.5227C168.675 56.0852 169.161 56.5455 169.749 56.5455ZM177.242 68.2045C179.901 68.2045 181.691 66.1847 181.691 63.142C181.691 60.0739 179.901 58.054 177.242 58.054C174.583 58.054 172.794 60.0739 172.794 63.142C172.794 66.1847 174.583 68.2045 177.242 68.2045ZM177.242 66.8494C175.222 66.8494 174.302 65.1108 174.302 63.142C174.302 61.1733 175.222 59.4091 177.242 59.4091C179.262 59.4091 180.183 61.1733 180.183 63.142C180.183 65.1108 179.262 66.8494 177.242 66.8494ZM185.502 62.0938C185.502 60.3807 186.564 59.4091 188.008 59.4091C189.408 59.4091 190.258 60.3232 190.258 61.8636V68H191.767V61.7614C191.767 59.2557 190.431 58.054 188.443 58.054C186.96 58.054 186.039 58.7188 185.579 59.7159H185.451V58.1818H183.994V68H185.502V62.0938Z" fill="#374151"/>
<rect x="822" y="33" width="161" height="56" rx="8" fill="#10B981"/>
<path d="M880.117 58.348H882.021C881.964 56.2514 880.11 54.7301 877.451 54.7301C874.824 54.7301 872.81 56.2322 872.81 58.4886C872.81 60.3104 874.114 61.3778 876.217 61.9467L877.764 62.3686C879.164 62.7393 880.244 63.1996 880.244 64.3629C880.244 65.6413 879.024 66.4851 877.342 66.4851C875.821 66.4851 874.555 65.8075 874.44 64.3821H872.459C872.587 66.7536 874.421 68.2173 877.355 68.2173C880.43 68.2173 882.2 66.6001 882.2 64.3821C882.2 62.0234 880.097 61.1094 878.435 60.7003L877.157 60.3679C876.134 60.1058 874.773 59.6264 874.779 58.3736C874.779 57.2614 875.796 56.4368 877.406 56.4368C878.908 56.4368 879.976 57.1399 880.117 58.348ZM888.639 68.1982C890.78 68.1982 892.295 67.1435 892.73 65.5455L890.921 65.2195C890.576 66.1463 889.745 66.6193 888.658 66.6193C887.022 66.6193 885.922 65.5582 885.871 63.6662H892.851V62.9886C892.851 59.4411 890.729 58.054 888.505 58.054C885.769 58.054 883.966 60.1378 883.966 63.1548C883.966 66.2038 885.743 68.1982 888.639 68.1982ZM885.877 62.2344C885.954 60.8409 886.964 59.6328 888.517 59.6328C890 59.6328 890.972 60.7322 890.978 62.2344H885.877ZM897.829 68.2173C899.453 68.2173 900.367 67.3928 900.731 66.6577H900.808V68H902.674V61.4801C902.674 58.6229 900.424 58.054 898.864 58.054C897.087 58.054 895.451 58.7699 894.812 60.5597L896.608 60.9688C896.889 60.272 897.605 59.6009 898.89 59.6009C900.124 59.6009 900.756 60.2464 900.756 61.3587V61.4034C900.756 62.1001 900.041 62.0874 898.276 62.2919C896.416 62.5092 894.511 62.995 894.511 65.2259C894.511 67.1562 895.962 68.2173 897.829 68.2173ZM898.244 66.6832C897.164 66.6832 896.384 66.1974 896.384 65.2514C896.384 64.2287 897.292 63.8643 898.398 63.7173C899.018 63.6342 900.488 63.468 900.763 63.1932V64.4588C900.763 65.6222 899.836 66.6832 898.244 66.6832ZM905.22 68H907.131V62.0043C907.131 60.7195 908.122 59.7926 909.477 59.7926C909.873 59.7926 910.321 59.8629 910.474 59.9077V58.0795C910.282 58.054 909.905 58.0348 909.662 58.0348C908.512 58.0348 907.527 58.6868 907.169 59.7415H907.067V58.1818H905.22V68ZM915.912 68.1982C918.232 68.1982 919.734 66.8047 919.945 64.8935H918.085C917.842 65.9545 917.018 66.581 915.925 66.581C914.308 66.581 913.266 65.2322 913.266 63.0909C913.266 60.9879 914.327 59.6648 915.925 59.6648C917.139 59.6648 917.881 60.4318 918.085 61.3523H919.945C919.741 59.3707 918.124 58.054 915.893 58.054C913.125 58.054 911.335 60.1378 911.335 63.1357C911.335 66.0952 913.061 68.1982 915.912 68.1982ZM923.9 62.1705C923.9 60.6044 924.891 59.7095 926.253 59.7095C927.57 59.7095 928.356 60.5469 928.356 61.9851V68H930.267V61.755C930.267 59.3068 928.925 58.054 926.905 58.054C925.377 58.054 924.457 58.7188 923.996 59.7798H923.875V54.9091H921.989V68H923.9V62.1705Z" fill="white"/>
<path d="M203.58 50.6903H202.301V72.2188H203.58V50.6903Z" fill="#34D399"/>
<path d="M213.233 66H219.457V64.9062H214.466V61.446H219.06V60.3523H214.466V56.9119H219.378V55.8182H213.233V66ZM222.614 61.4062C222.614 60.0739 223.44 59.3182 224.563 59.3182C225.652 59.3182 226.313 60.0291 226.313 61.2273V66H227.487V61.1477C227.487 59.1989 226.447 58.2642 224.901 58.2642C223.748 58.2642 223.032 58.7812 222.674 59.5568H222.575V58.3636H221.441V66H222.614V61.4062ZM232.952 58.3636H231.321V56.5341H230.148V58.3636H228.994V59.358H230.148V64.1307C230.148 65.4631 231.221 66.0994 232.216 66.0994C232.653 66.0994 232.932 66.0199 233.091 65.9602L232.852 64.9062C232.753 64.9261 232.594 64.9659 232.335 64.9659C231.818 64.9659 231.321 64.8068 231.321 63.8125V59.358H232.952V58.3636ZM237.836 66.1591C239.387 66.1591 240.521 65.3835 240.879 64.2301L239.745 63.9119C239.447 64.7074 238.756 65.1051 237.836 65.1051C236.459 65.1051 235.509 64.2152 235.455 62.5795H240.998V62.0824C240.998 59.2386 239.308 58.2642 237.717 58.2642C235.649 58.2642 234.276 59.8949 234.276 62.2415C234.276 64.5881 235.629 66.1591 237.836 66.1591ZM235.455 61.5653C235.534 60.3771 236.374 59.3182 237.717 59.3182C238.99 59.3182 239.805 60.2727 239.805 61.5653H235.455ZM242.783 66H243.956V61.1676C243.956 60.1335 244.771 59.3778 245.885 59.3778C246.198 59.3778 246.521 59.4375 246.601 59.4574V58.2642C246.467 58.2543 246.159 58.2443 245.985 58.2443C245.07 58.2443 244.274 58.7614 243.996 59.517H243.916V58.3636H242.783V66ZM251.213 55.8182L254.892 61.804V66H256.125V61.804L259.804 55.8182H258.392L255.569 60.571H255.449L252.625 55.8182H251.213ZM263.262 66.1591C265.33 66.1591 266.722 64.5881 266.722 62.2216C266.722 59.8352 265.33 58.2642 263.262 58.2642C261.194 58.2642 259.802 59.8352 259.802 62.2216C259.802 64.5881 261.194 66.1591 263.262 66.1591ZM263.262 65.1051C261.691 65.1051 260.975 63.7528 260.975 62.2216C260.975 60.6903 261.691 59.3182 263.262 59.3182C264.833 59.3182 265.549 60.6903 265.549 62.2216C265.549 63.7528 264.833 65.1051 263.262 65.1051ZM273.326 62.8778C273.326 64.3097 272.232 64.9659 271.357 64.9659C270.383 64.9659 269.687 64.25 269.687 63.1364V58.3636H268.513V63.2159C268.513 65.1648 269.547 66.0994 270.979 66.0994C272.133 66.0994 272.888 65.483 273.246 64.7074H273.326V66H274.499V58.3636H273.326V62.8778ZM276.648 66H277.821V61.1676C277.821 60.1335 278.637 59.3778 279.75 59.3778C280.064 59.3778 280.387 59.4375 280.466 59.4574V58.2642C280.332 58.2543 280.024 58.2443 279.85 58.2443C278.935 58.2443 278.14 58.7614 277.861 59.517H277.782V58.3636H276.648V66ZM285.954 66H291.92V64.9062H287.187V55.8182H285.954V66ZM296.772 66.1591C298.84 66.1591 300.232 64.5881 300.232 62.2216C300.232 59.8352 298.84 58.2642 296.772 58.2642C294.704 58.2642 293.312 59.8352 293.312 62.2216C293.312 64.5881 294.704 66.1591 296.772 66.1591ZM296.772 65.1051C295.201 65.1051 294.485 63.7528 294.485 62.2216C294.485 60.6903 295.201 59.3182 296.772 59.3182C298.343 59.3182 299.059 60.6903 299.059 62.2216C299.059 63.7528 298.343 65.1051 296.772 65.1051ZM305.125 66.1591C306.816 66.1591 307.929 65.125 308.128 63.7727H306.955C306.736 64.608 306.04 65.1051 305.125 65.1051C303.733 65.1051 302.838 63.9517 302.838 62.1818C302.838 60.4517 303.753 59.3182 305.125 59.3182C306.159 59.3182 306.776 59.9545 306.955 60.6506H308.128C307.929 59.2188 306.716 58.2642 305.105 58.2642C303.037 58.2642 301.665 59.8949 301.665 62.2216C301.665 64.5085 302.978 66.1591 305.125 66.1591ZM312.091 66.179C313.423 66.179 314.119 65.4631 314.358 64.9659H314.417V66H315.591V60.9688C315.591 58.5426 313.741 58.2642 312.767 58.2642C311.613 58.2642 310.301 58.6619 309.704 60.054L310.818 60.4517C311.076 59.8949 311.688 59.2983 312.806 59.2983C313.885 59.2983 314.417 59.87 314.417 60.8494V60.8892C314.417 61.456 313.841 61.4062 312.449 61.5852C311.032 61.7692 309.485 62.0824 309.485 63.8324C309.485 65.3239 310.639 66.179 312.091 66.179ZM312.27 65.125C311.335 65.125 310.659 64.7074 310.659 63.892C310.659 62.9972 311.474 62.7188 312.389 62.5994C312.886 62.5398 314.218 62.4006 314.417 62.1619V63.2358C314.417 64.1903 313.662 65.125 312.27 65.125ZM321.053 58.3636H319.422V56.5341H318.249V58.3636H317.096V59.358H318.249V64.1307C318.249 65.4631 319.323 66.0994 320.317 66.0994C320.755 66.0994 321.033 66.0199 321.192 65.9602L320.954 64.9062C320.854 64.9261 320.695 64.9659 320.437 64.9659C319.92 64.9659 319.422 64.8068 319.422 63.8125V59.358H321.053V58.3636ZM322.818 66H323.991V58.3636H322.818V66ZM323.415 57.0909C323.872 57.0909 324.25 56.733 324.25 56.2955C324.25 55.858 323.872 55.5 323.415 55.5C322.957 55.5 322.579 55.858 322.579 56.2955C322.579 56.733 322.957 57.0909 323.415 57.0909ZM329.243 66.1591C331.311 66.1591 332.703 64.5881 332.703 62.2216C332.703 59.8352 331.311 58.2642 329.243 58.2642C327.174 58.2642 325.782 59.8352 325.782 62.2216C325.782 64.5881 327.174 66.1591 329.243 66.1591ZM329.243 65.1051C327.672 65.1051 326.956 63.7528 326.956 62.2216C326.956 60.6903 327.672 59.3182 329.243 59.3182C330.814 59.3182 331.529 60.6903 331.529 62.2216C331.529 63.7528 330.814 65.1051 329.243 65.1051ZM335.667 61.4062C335.667 60.0739 336.492 59.3182 337.616 59.3182C338.705 59.3182 339.366 60.0291 339.366 61.2273V66H340.539V61.1477C340.539 59.1989 339.5 58.2642 337.954 58.2642C336.801 58.2642 336.085 58.7812 335.727 59.5568H335.627V58.3636H334.494V66H335.667V61.4062ZM346.78 66H348.013V61.446H353.442V66H354.675V55.8182H353.442V60.3523H348.013V55.8182H346.78V66ZM360.186 66.1591C361.737 66.1591 362.87 65.3835 363.228 64.2301L362.095 63.9119C361.797 64.7074 361.105 65.1051 360.186 65.1051C358.809 65.1051 357.859 64.2152 357.804 62.5795H363.348V62.0824C363.348 59.2386 361.657 58.2642 360.066 58.2642C357.998 58.2642 356.626 59.8949 356.626 62.2415C356.626 64.5881 357.978 66.1591 360.186 66.1591ZM357.804 61.5653C357.884 60.3771 358.724 59.3182 360.066 59.3182C361.339 59.3182 362.154 60.2727 362.154 61.5653H357.804ZM365.132 66H366.306V61.1676C366.306 60.1335 367.121 59.3778 368.235 59.3778C368.548 59.3778 368.871 59.4375 368.951 59.4574V58.2642C368.816 58.2543 368.508 58.2443 368.334 58.2443C367.419 58.2443 366.624 58.7614 366.346 59.517H366.266V58.3636H365.132V66ZM373.311 66.1591C374.862 66.1591 375.995 65.3835 376.353 64.2301L375.22 63.9119C374.922 64.7074 374.23 65.1051 373.311 65.1051C371.934 65.1051 370.984 64.2152 370.929 62.5795H376.473V62.0824C376.473 59.2386 374.782 58.2642 373.191 58.2642C371.123 58.2642 369.751 59.8949 369.751 62.2415C369.751 64.5881 371.103 66.1591 373.311 66.1591ZM370.929 61.5653C371.009 60.3771 371.849 59.3182 373.191 59.3182C374.464 59.3182 375.279 60.2727 375.279 61.5653H370.929ZM379.809 55.8182H378.456L378.556 63.1364H379.709L379.809 55.8182ZM379.132 66.0795C379.625 66.0795 380.027 65.6768 380.027 65.1847C380.027 64.6925 379.625 64.2898 379.132 64.2898C378.64 64.2898 378.238 64.6925 378.238 65.1847C378.238 65.6768 378.64 66.0795 379.132 66.0795Z" fill="#6B7280"/>
<line x1="468.5" y1="2" x2="468.5" y2="114" stroke="#D1D5DB"/>
<line x1="642.5" y1="2" x2="642.5" y2="114" stroke="#D1D5DB"/>
<line x1="782.121" y1="2" x2="782.121" y2="114" stroke="#D1D5DB"/>
<path d="M516.119 58C515.634 55.3153 513.486 53.7301 510.852 53.7301C507.503 53.7301 505.074 56.3125 505.074 60.4545C505.074 64.5966 507.503 67.179 510.852 67.179C513.486 67.179 515.634 65.5938 516.119 62.9091H514.534C514.151 64.7244 512.591 65.696 510.852 65.696C508.474 65.696 506.608 63.8551 506.608 60.4545C506.608 57.054 508.474 55.2131 510.852 55.2131C512.591 55.2131 514.151 56.1847 514.534 58H516.119ZM521.366 67.2301C523.079 67.2301 523.974 66.3097 524.28 65.6705H524.357V67H525.866V60.5312C525.866 57.4119 523.488 57.054 522.235 57.054C520.752 57.054 519.064 57.5653 518.297 59.3551L519.729 59.8665C520.062 59.1506 520.848 58.3835 522.286 58.3835C523.673 58.3835 524.357 59.1186 524.357 60.3778V60.429C524.357 61.1577 523.616 61.0938 521.826 61.3239C520.004 61.5604 518.016 61.9631 518.016 64.2131C518.016 66.1307 519.499 67.2301 521.366 67.2301ZM521.596 65.875C520.394 65.875 519.525 65.3381 519.525 64.2898C519.525 63.1392 520.573 62.7812 521.749 62.6278C522.388 62.5511 524.101 62.3722 524.357 62.0653V63.446C524.357 64.6733 523.385 65.875 521.596 65.875ZM532.889 57.1818H530.792V54.8295H529.284V57.1818H527.801V58.4602H529.284V64.5966C529.284 66.3097 530.664 67.1278 531.943 67.1278C532.505 67.1278 532.863 67.0256 533.068 66.9489L532.761 65.5938C532.633 65.6193 532.429 65.6705 532.096 65.6705C531.431 65.6705 530.792 65.4659 530.792 64.1875V58.4602H532.889V57.1818ZM538.047 67.2301C539.76 67.2301 540.655 66.3097 540.962 65.6705H541.039V67H542.547V60.5312C542.547 57.4119 540.169 57.054 538.917 57.054C537.434 57.054 535.746 57.5653 534.979 59.3551L536.411 59.8665C536.743 59.1506 537.529 58.3835 538.968 58.3835C540.355 58.3835 541.039 59.1186 541.039 60.3778V60.429C541.039 61.1577 540.297 61.0938 538.507 61.3239C536.686 61.5604 534.698 61.9631 534.698 64.2131C534.698 66.1307 536.181 67.2301 538.047 67.2301ZM538.277 65.875C537.076 65.875 536.206 65.3381 536.206 64.2898C536.206 63.1392 537.255 62.7812 538.431 62.6278C539.07 62.5511 540.783 62.3722 541.039 62.0653V63.446C541.039 64.6733 540.067 65.875 538.277 65.875ZM549.264 70.8864C551.616 70.8864 553.508 69.8125 553.508 67.2812V57.1818H552.051V58.7415H551.897C551.565 58.2301 550.951 57.054 549.034 57.054C546.553 57.054 544.84 59.0227 544.84 62.0398C544.84 65.108 546.63 66.8466 549.008 66.8466C550.926 66.8466 551.539 65.7216 551.872 65.1847H551.999V67.179C551.999 68.8153 550.849 69.5568 549.264 69.5568C547.48 69.5568 546.854 68.6172 546.451 68.0739L545.249 68.9176C545.863 69.9467 547.071 70.8864 549.264 70.8864ZM549.213 65.4915C547.32 65.4915 546.349 64.0597 546.349 62.0142C546.349 60.0199 547.295 58.4091 549.213 58.4091C551.053 58.4091 552.025 59.892 552.025 62.0142C552.025 64.1875 551.028 65.4915 549.213 65.4915ZM560.258 67.2045C562.917 67.2045 564.707 65.1847 564.707 62.142C564.707 59.0739 562.917 57.054 560.258 57.054C557.599 57.054 555.809 59.0739 555.809 62.142C555.809 65.1847 557.599 67.2045 560.258 67.2045ZM560.258 65.8494C558.238 65.8494 557.318 64.1108 557.318 62.142C557.318 60.1733 558.238 58.4091 560.258 58.4091C562.278 58.4091 563.198 60.1733 563.198 62.142C563.198 64.1108 562.278 65.8494 560.258 65.8494ZM567.01 67H568.518V60.7869C568.518 59.4574 569.566 58.4858 570.998 58.4858C571.401 58.4858 571.816 58.5625 571.919 58.5881V57.054C571.746 57.0412 571.35 57.0284 571.126 57.0284C569.95 57.0284 568.927 57.6932 568.569 58.6648H568.467V57.1818H567.01V67ZM574.977 70.6818C576.339 70.6818 577.298 69.9595 577.866 68.4318L582.047 57.2074L580.398 57.1818L577.688 65.0057H577.585L574.875 57.1818H573.239L576.869 67.0511L576.588 67.8182C576.038 69.3139 575.361 69.4545 574.261 69.1733L573.878 70.5028C574.031 70.5795 574.466 70.6818 574.977 70.6818Z" fill="#374151"/>
<g clip-path="url(#clip1_1_72)">
<path d="M592.034 59.75L596.69 64.25L601.345 59.75" stroke="#2C3E50" stroke-width="1.5" stroke-linecap="round" stroke-linejoin="round"/>
</g>
<path d="M686.744 57.1818H688.278C688.208 55.2067 686.386 53.7301 683.855 53.7301C681.349 53.7301 679.381 55.1875 679.381 57.3864C679.381 59.1506 680.659 60.1989 682.705 60.7869L684.315 61.2472C685.696 61.6307 686.923 62.1165 686.923 63.4205C686.923 64.8523 685.543 65.7983 683.727 65.7983C682.168 65.7983 680.787 65.108 680.659 63.625H679.023C679.176 65.7727 680.915 67.2301 683.727 67.2301C686.744 67.2301 688.457 65.5682 688.457 63.446C688.457 60.9915 686.131 60.1989 684.776 59.8409L683.446 59.483C682.474 59.2273 680.915 58.7159 680.915 57.3097C680.915 56.0568 682.065 55.1364 683.804 55.1364C685.389 55.1364 686.591 55.8906 686.744 57.1818ZM690.859 67H692.368V63.3246L693.422 62.3466L697.098 67H699.015L694.56 61.375L698.709 57.1818H696.842L692.547 61.554H692.368V53.9091H690.859V67ZM700.65 67H702.159V57.1818H700.65V67ZM701.417 55.5455C702.005 55.5455 702.491 55.0852 702.491 54.5227C702.491 53.9602 702.005 53.5 701.417 53.5C700.829 53.5 700.343 53.9602 700.343 54.5227C700.343 55.0852 700.829 55.5455 701.417 55.5455ZM706.43 53.9091H704.922V67H706.43V53.9091ZM710.702 53.9091H709.193V67H710.702V53.9091ZM720.419 59.3807C719.946 57.9872 718.885 57.054 716.942 57.054C714.871 57.054 713.337 58.2301 713.337 59.892C713.337 61.2472 714.142 62.1548 715.945 62.5767L717.581 62.9602C718.572 63.1903 719.039 63.6634 719.039 64.3409C719.039 65.1847 718.144 65.875 716.737 65.875C715.504 65.875 714.73 65.3445 714.462 64.2898L713.03 64.6477C713.382 66.3161 714.756 67.2045 716.763 67.2045C719.045 67.2045 720.598 65.9581 720.598 64.2642C720.598 62.8963 719.742 62.0334 717.99 61.6051L716.533 61.2472C715.369 60.9595 714.845 60.5696 714.845 59.8153C714.845 58.9716 715.74 58.358 716.942 58.358C718.259 58.358 718.802 59.0866 719.064 59.7642L720.419 59.3807Z" fill="#374151"/>
<g clip-path="url(#clip2_1_72)">
<path d="M731.655 59.75L736.31 64.25L740.965 59.75" stroke="#2C3E50" stroke-width="1.5" stroke-linecap="round" stroke-linejoin="round"/>
</g>
<defs>
<filter id="filter0_dd_1_72" x="0" y="0" width="1037" height="136" filterUnits="userSpaceOnUse" color-interpolation-filters="sRGB">
<feFlood flood-opacity="0" result="BackgroundImageFix"/>
<feColorMatrix in="SourceAlpha" type="matrix" values="0 0 0 0 0 0 0 0 0 0 0 0 0 0 0 0 0 0 127 0" result="hardAlpha"/>
<feMorphology radius="3" operator="erode" in="SourceAlpha" result="effect1_dropShadow_1_72"/>
<feOffset dy="10"/>
<feGaussianBlur stdDeviation="7.5"/>
<feColorMatrix type="matrix" values="0 0 0 0 0 0 0 0 0 0 0 0 0 0 0 0 0 0 0.1 0"/>
<feBlend mode="normal" in2="BackgroundImageFix" result="effect1_dropShadow_1_72"/>
<feColorMatrix in="SourceAlpha" type="matrix" values="0 0 0 0 0 0 0 0 0 0 0 0 0 0 0 0 0 0 127 0" result="hardAlpha"/>
<feMorphology radius="2" operator="erode" in="SourceAlpha" result="effect2_dropShadow_1_72"/>
<feOffset dy="4"/>
<feGaussianBlur stdDeviation="3"/>
<feColorMatrix type="matrix" values="0 0 0 0 0 0 0 0 0 0 0 0 0 0 0 0 0 0 0.06 0"/>
<feBlend mode="normal" in2="effect1_dropShadow_1_72" result="effect2_dropShadow_1_72"/>
<feBlend mode="normal" in="SourceGraphic" in2="effect2_dropShadow_1_72" result="shape"/>
</filter>
<clipPath id="clip0_1_72">
<rect width="44" height="44" fill="white" transform="translate(60 39)"/>
</clipPath>
<clipPath id="clip1_1_72">
<rect width="18.6207" height="18" fill="white" transform="translate(587.379 53)"/>
</clipPath>
<clipPath id="clip2_1_72">
<rect width="18.6207" height="18" fill="white" transform="translate(727 53)"/>
</clipPath>
</defs>
</svg>
