<svg width="44" height="25" viewBox="0 0 44 25" fill="none" xmlns="http://www.w3.org/2000/svg">
<path fill-rule="evenodd" clip-rule="evenodd" d="M32.2881 0.891968C28.076 0.891968 24.4093 3.36783 22.5457 7.02123L28.3487 12.9844C28.3336 12.8486 28.3336 12.6976 28.3336 12.5466C28.3336 10.2519 30.1063 8.37994 32.273 8.37994C34.4548 8.37994 36.2123 10.2368 36.2123 12.5466C36.2123 14.8413 34.4396 16.7133 32.273 16.7133C31.3184 16.7133 30.4396 16.351 29.7578 15.7622L19.076 4.3944C17.0608 2.23558 14.2578 0.891968 11.1669 0.891968C5.06085 0.891968 0.091156 6.11543 0.091156 12.5617C0.091156 19.008 5.0457 24.2315 11.1669 24.2315C15.379 24.2315 19.0457 21.7556 20.9093 18.0871L15.1669 12.1843C15.1821 12.3202 15.1821 12.456 15.1821 12.5919C15.1821 14.8866 13.4093 16.7586 11.2427 16.7586C9.06085 16.7586 7.30327 14.9017 7.30327 12.5919C7.30327 10.2972 9.076 8.42523 11.2427 8.42523C12.2275 8.42523 13.1214 8.80264 13.8184 9.43671L24.4851 20.8196C26.4851 22.9181 29.2427 24.2164 32.2881 24.2164C38.4093 24.2164 43.3639 18.9929 43.3639 12.5466C43.3639 6.11543 38.4093 0.891968 32.2881 0.891968Z" fill="#34D399"/>
</svg>
