<svg width="18" height="6" viewBox="0 0 18 6" fill="none" xmlns="http://www.w3.org/2000/svg">
<path d="M2 2.65232H2.01M9 2.65232H9.01M16 2.65232H16.01M3 2.65232C3 3.09055 2.89464 3.51083 2.70711 3.8207C2.51957 4.13058 2.26522 4.30466 2 4.30466C1.73478 4.30466 1.48043 4.13058 1.29289 3.8207C1.10536 3.51083 1 3.09055 1 2.65232C1 2.2141 1.10536 1.79382 1.29289 1.48394C1.48043 1.17407 1.73478 0.999985 2 0.999985C2.26522 0.999985 2.51957 1.17407 2.70711 1.48394C2.89464 1.79382 3 2.2141 3 2.65232ZM10 2.65232C10 3.09055 9.89464 3.51083 9.70711 3.8207C9.51957 4.13058 9.26522 4.30466 9 4.30466C8.73478 4.30466 8.48043 4.13058 8.29289 3.8207C8.10536 3.51083 8 3.09055 8 2.65232C8 2.2141 8.10536 1.79382 8.29289 1.48394C8.48043 1.17407 8.73478 0.999985 9 0.999985C9.26522 0.999985 9.51957 1.17407 9.70711 1.48394C9.89464 1.79382 10 2.2141 10 2.65232ZM17 2.65232C17 3.09055 16.8946 3.51083 16.7071 3.8207C16.5196 4.13058 16.2652 4.30466 16 4.30466C15.7348 4.30466 15.4804 4.13058 15.2929 3.8207C15.1054 3.51083 15 3.09055 15 2.65232C15 2.2141 15.1054 1.79382 15.2929 1.48394C15.4804 1.17407 15.7348 0.999985 16 0.999985C16.2652 0.999985 16.5196 1.17407 16.7071 1.48394C16.8946 1.79382 17 2.2141 17 2.65232Z" stroke="white" stroke-width="2" stroke-linecap="round" stroke-linejoin="round"/>
</svg>
